<svg width="267" height="255" viewBox="0 0 267 255" fill="none" xmlns="http://www.w3.org/2000/svg">
<path d="M115.721 192.378C127.847 192.378 143.438 212.398 143.438 225.064H165.959C173.321 225.064 179.817 231.601 179.817 239.364C179.817 247.535 173.754 253.255 165.959 253.255H68.5155C12.2151 253.664 -2.94268 205.861 1.8212 172.358C1.8212 172.358 49.8931 220.57 62.8855 220.57C62.4524 170.724 101.43 123.738 126.981 102.084C141.273 89.8271 145.171 57.55 145.171 57.55V40.3901C145.171 22.8215 146.47 4.02727 150.368 1.57584C157.297 -2.91844 169.423 20.3701 179.384 20.3701C230.054 20.3701 222.692 53.0558 233.519 53.0558H256.472C266 53.0558 266 60.41 266 65.3129C265.134 78.7957 257.771 89.8271 222.692 89.8271C214.03 89.8271 200.605 101.267 200.605 122.104V228.741H201.038H205.369C210.133 228.741 214.03 232.418 214.03 236.913V245.084C214.03 249.578 210.133 253.255 205.369 253.255H137.159" stroke="#D8961A" stroke-width="2" stroke-linejoin="round" stroke-dasharray="4 4"/>
<path d="M175.486 176.036V211.99" stroke="#D8961A" stroke-width="2" stroke-linejoin="round" stroke-dasharray="4 4"/>
<path d="M261.669 77.9785H235.684" stroke="#D8961A" stroke-width="2" stroke-linejoin="round" stroke-dasharray="4 4"/>
</svg>
