<svg width="38" height="38" viewBox="0 0 38 38" fill="none" xmlns="http://www.w3.org/2000/svg">
<path d="M11.8486 8.32746C10.0365 8.52998 8.58613 9.96012 8.37648 11.7526C7.81331 16.5678 7.81331 21.4321 8.37648 26.2473C8.58613 28.0398 10.0365 29.4699 11.8486 29.6725C16.5619 30.1992 21.438 30.1992 26.1513 29.6725C27.9633 29.4699 29.4137 28.0398 29.6233 26.2473C30.028 22.7875 30.1419 19.3022 29.965 15.8281C29.9605 15.7384 29.994 15.6509 30.0575 15.5874L31.7022 13.9426C31.8926 13.7523 32.2179 13.8713 32.2381 14.1398C32.5485 18.2642 32.4632 22.411 31.9823 26.5232C31.6421 29.4317 29.3068 31.7096 26.4151 32.0328C21.5264 32.5791 16.4734 32.5791 11.5848 32.0328C8.69299 31.7096 6.35774 29.4317 6.01756 26.5232C5.43295 21.5247 5.43295 16.4752 6.01756 11.4767C6.35774 8.5682 8.693 6.29035 11.5848 5.96715C16.4734 5.42078 21.5264 5.42078 26.4151 5.96715C27.4335 6.08099 28.383 6.43728 29.2006 6.9782C29.3614 7.08464 29.3774 7.3108 29.241 7.4472L27.9698 8.71844C27.8658 8.82242 27.7045 8.83991 27.5749 8.77046C27.142 8.53851 26.6609 8.38442 26.1513 8.32746C21.438 7.80068 16.5619 7.80068 11.8486 8.32746Z" fill="#FF0505"/>
<path d="M33.2979 9.54799C33.7617 9.08424 33.7617 8.33236 33.2979 7.86861C32.8342 7.40486 32.0823 7.40486 31.6185 7.86861L18.2082 21.2789L14.2979 17.3686C13.8342 16.9049 13.0823 16.9049 12.6185 17.3686C12.1548 17.8324 12.1548 18.5842 12.6185 19.048L17.3685 23.798C17.8323 24.2617 18.5842 24.2617 19.0479 23.798L33.2979 9.54799Z" fill="#FF0505"/>
</svg>
