<svg width="25" height="24" viewBox="0 0 25 24" fill="none" xmlns="http://www.w3.org/2000/svg">
<path d="M20.1999 8.00001L14.1999 2.74001C13.6499 2.24805 12.9379 1.97607 12.1999 1.97607C11.462 1.97607 10.7499 2.24805 10.1999 2.74001L4.19992 8.00001C3.88229 8.28408 3.62882 8.63256 3.4564 9.02225C3.28397 9.41194 3.19654 9.83389 3.19992 10.26V19C3.19992 19.7957 3.51599 20.5587 4.0786 21.1213C4.64121 21.6839 5.40427 22 6.19992 22H18.1999C18.9956 22 19.7586 21.6839 20.3212 21.1213C20.8839 20.5587 21.1999 19.7957 21.1999 19V10.25C21.2019 9.82557 21.1138 9.40555 20.9414 9.01769C20.769 8.62983 20.5163 8.28296 20.1999 8.00001ZM14.1999 20H10.1999V15C10.1999 14.7348 10.3053 14.4804 10.4928 14.2929C10.6804 14.1054 10.9347 14 11.1999 14H13.1999C13.4651 14 13.7195 14.1054 13.907 14.2929C14.0946 14.4804 14.1999 14.7348 14.1999 15V20ZM19.1999 19C19.1999 19.2652 19.0946 19.5196 18.907 19.7071C18.7195 19.8946 18.4651 20 18.1999 20H16.1999V15C16.1999 14.2044 15.8839 13.4413 15.3212 12.8787C14.7586 12.3161 13.9956 12 13.1999 12H11.1999C10.4043 12 9.64121 12.3161 9.0786 12.8787C8.51599 13.4413 8.19992 14.2044 8.19992 15V20H6.19992C5.93471 20 5.68035 19.8946 5.49282 19.7071C5.30528 19.5196 5.19992 19.2652 5.19992 19V10.25C5.2001 10.108 5.23052 9.9677 5.28914 9.83839C5.34777 9.70907 5.43326 9.59372 5.53992 9.50001L11.5399 4.25001C11.7224 4.08969 11.957 4.00127 12.1999 4.00127C12.4428 4.00127 12.6774 4.08969 12.8599 4.25001L18.8599 9.50001C18.9666 9.59372 19.0521 9.70907 19.1107 9.83839C19.1693 9.9677 19.1997 10.108 19.1999 10.25V19Z" fill="currentColor"/>
</svg>
