<svg width="25" height="24" viewBox="0 0 25 24" fill="none" xmlns="http://www.w3.org/2000/svg">
<path d="M21.3999 10.41H18.8999C18.7676 10.4105 18.6367 10.4373 18.5148 10.4888C18.393 10.5403 18.2825 10.6155 18.1899 10.71L16.9499 12L14.1499 8.80996C14.0564 8.71004 13.9433 8.6304 13.8178 8.57595C13.6922 8.5215 13.5568 8.4934 13.4199 8.4934C13.283 8.4934 13.1476 8.5215 13.0221 8.57595C12.8965 8.6304 12.7835 8.71004 12.6899 8.80996L10.9899 10.51H9.39991C9.1347 10.51 8.88034 10.6153 8.69281 10.8028C8.50527 10.9904 8.39991 11.2447 8.39991 11.51C8.39991 11.7752 8.50527 12.0295 8.69281 12.2171C8.88034 12.4046 9.1347 12.51 9.39991 12.51H11.3999C11.5315 12.5107 11.662 12.4855 11.7838 12.4357C11.9057 12.386 12.0165 12.3126 12.1099 12.22L13.3999 10.88L16.1999 14.07C16.2902 14.1729 16.4008 14.2562 16.5246 14.3147C16.6485 14.3732 16.783 14.4056 16.9199 14.41C17.0515 14.4107 17.182 14.3855 17.3038 14.3357C17.4257 14.286 17.5365 14.2126 17.6299 14.12L19.3299 12.41H21.3999C21.6651 12.41 21.9195 12.3046 22.107 12.1171C22.2946 11.9295 22.3999 11.6752 22.3999 11.41C22.3999 11.1447 22.2946 10.8904 22.107 10.7028C21.9195 10.5153 21.6651 10.41 21.3999 10.41ZM14.0099 15.71L12.1099 17.61C12.017 17.7037 11.9064 17.7781 11.7845 17.8288C11.6626 17.8796 11.5319 17.9058 11.3999 17.9058C11.2679 17.9058 11.1372 17.8796 11.0153 17.8288C10.8935 17.7781 10.7829 17.7037 10.6899 17.61L5.47991 12.4C5.13703 12.0573 4.86503 11.6504 4.67946 11.2026C4.49388 10.7547 4.39836 10.2747 4.39836 9.78996C4.39836 9.30519 4.49388 8.82518 4.67946 8.37735C4.86503 7.92951 5.13703 7.52263 5.47991 7.17996C6.17158 6.49053 7.10833 6.1034 8.08491 6.1034C9.06149 6.1034 9.99825 6.49053 10.6899 7.17996C10.7829 7.27368 10.8935 7.34808 11.0153 7.39885C11.1372 7.44962 11.2679 7.47575 11.3999 7.47575C11.5319 7.47575 11.6626 7.44962 11.7845 7.39885C11.9064 7.34808 12.017 7.27368 12.1099 7.17996C12.8126 6.51168 13.7452 6.139 14.7149 6.139C15.6846 6.139 16.6172 6.51168 17.3199 7.17996C17.5427 7.4057 17.7375 7.65752 17.8999 7.92996C18.0455 8.13017 18.2602 8.26926 18.5025 8.3203C18.7447 8.37135 18.9973 8.33073 19.2113 8.2063C19.4253 8.08187 19.5856 7.88248 19.661 7.64671C19.7365 7.41094 19.7219 7.15555 19.6199 6.92996C19.3727 6.5195 19.0773 6.14014 18.7399 5.79996C17.7909 4.83981 16.531 4.24906 15.1859 4.13361C13.8408 4.01816 12.4987 4.38557 11.3999 5.16996C10.5508 4.55825 9.54914 4.19303 8.50555 4.11461C7.46197 4.03618 6.417 4.2476 5.48597 4.72552C4.55495 5.20345 3.77406 5.92931 3.22948 6.82299C2.68491 7.71667 2.39783 8.74343 2.39991 9.78996C2.39961 10.534 2.54708 11.2708 2.83376 11.9574C3.12043 12.6441 3.54061 13.267 4.06991 13.79L9.27991 19C9.84242 19.5618 10.6049 19.8773 11.3999 19.8773C12.1949 19.8773 12.9574 19.5618 13.5199 19L15.3999 17.12C15.5862 16.9326 15.6907 16.6791 15.6907 16.415C15.6907 16.1508 15.5862 15.8973 15.3999 15.71C15.2134 15.5297 14.9643 15.429 14.7049 15.429C14.4456 15.429 14.1964 15.5297 14.0099 15.71Z" fill="currentColor"/>
</svg>
