<svg width="25" height="24" viewBox="0 0 25 24" fill="none" xmlns="http://www.w3.org/2000/svg">
<path d="M16.5099 12.7099C17.4903 11.9385 18.2059 10.8808 18.5572 9.68382C18.9084 8.48684 18.8778 7.21015 18.4697 6.03135C18.0616 4.85255 17.2962 3.83027 16.28 3.10674C15.2638 2.3832 14.0474 1.99438 12.7999 1.99438C11.5525 1.99438 10.336 2.3832 9.31985 3.10674C8.30367 3.83027 7.53827 4.85255 7.13014 6.03135C6.722 7.21015 6.69144 8.48684 7.04268 9.68382C7.39393 10.8808 8.10953 11.9385 9.08992 12.7099C7.41 13.3829 5.94421 14.4992 4.84882 15.9398C3.75342 17.3804 3.06949 19.0912 2.86992 20.8899C2.85548 21.0212 2.86704 21.1541 2.90395 21.2809C2.94086 21.4078 3.00239 21.5261 3.08503 21.6292C3.25194 21.8374 3.49471 21.9707 3.75992 21.9999C4.02514 22.0291 4.29108 21.9517 4.49925 21.7848C4.70741 21.6179 4.84075 21.3751 4.86992 21.1099C5.08951 19.1551 6.02161 17.3497 7.48814 16.0387C8.95467 14.7277 10.8528 14.0029 12.8199 14.0029C14.787 14.0029 16.6852 14.7277 18.1517 16.0387C19.6182 17.3497 20.5503 19.1551 20.7699 21.1099C20.7971 21.3556 20.9144 21.5825 21.099 21.7469C21.2837 21.9113 21.5227 22.0014 21.7699 21.9999H21.8799C22.1421 21.9697 22.3816 21.8372 22.5465 21.6311C22.7113 21.4251 22.788 21.1622 22.7599 20.8999C22.5594 19.0961 21.8718 17.3809 20.7708 15.9381C19.6697 14.4953 18.1968 13.3794 16.5099 12.7099ZM12.7999 11.9999C12.0088 11.9999 11.2354 11.7653 10.5776 11.3258C9.91985 10.8862 9.40716 10.2615 9.1044 9.53061C8.80165 8.79971 8.72244 7.99544 8.87678 7.21952C9.03112 6.4436 9.41209 5.73086 9.9715 5.17145C10.5309 4.61204 11.2436 4.23108 12.0196 4.07674C12.7955 3.9224 13.5998 4.00161 14.3307 4.30436C15.0616 4.60711 15.6863 5.1198 16.1258 5.7776C16.5653 6.4354 16.7999 7.20876 16.7999 7.99988C16.7999 9.06075 16.3785 10.0782 15.6284 10.8283C14.8782 11.5785 13.8608 11.9999 12.7999 11.9999Z" fill="currentColor"/>
</svg>
