<svg width="31" height="31" viewBox="0 0 31 31" fill="none" xmlns="http://www.w3.org/2000/svg">
<circle cx="15.5" cy="15.5" r="15.5" fill="#D8961A"/>
<path fill-rule="evenodd" clip-rule="evenodd" d="M18.5304 11.4697C18.8232 11.7626 18.8232 12.2374 18.5304 12.5303L15.0304 16.0303C14.7375 16.3232 14.2626 16.3232 13.9697 16.0303L11.9697 14.0303C11.6768 13.7374 11.6768 13.2626 11.9697 12.9697C12.2626 12.6768 12.7375 12.6768 13.0304 12.9697L14.5 14.4393L17.4697 11.4697C17.7626 11.1768 18.2375 11.1768 18.5304 11.4697Z" fill="white"/>
<path fill-rule="evenodd" clip-rule="evenodd" d="M6.52439 12.8569C6.87872 8.55824 10.4709 5.25 14.7841 5.25H15.216C19.5292 5.25 23.1213 8.55824 23.4757 12.8569C23.666 15.166 22.9527 17.4589 21.4861 19.2526L16.693 25.1144C15.818 26.1845 14.1821 26.1845 13.307 25.1144L8.51399 19.2526C7.04733 17.4589 6.33405 15.166 6.52439 12.8569ZM14.7841 6.75C11.2515 6.75 8.30952 9.45948 8.01932 12.9801C7.8609 14.9019 8.45455 16.8102 9.67521 18.3031L14.4683 24.1649C14.7431 24.501 15.2569 24.501 15.5318 24.1649L20.3248 18.3031C21.5455 16.8102 22.1391 14.9019 21.9807 12.9801C21.6905 9.45948 18.7485 6.75 15.216 6.75H14.7841Z" fill="white"/>
</svg>
