<svg width="38" height="38" viewBox="0 0 38 38" fill="none" xmlns="http://www.w3.org/2000/svg">
<path d="M11.8487 8.32746C10.0367 8.52998 8.58626 9.96012 8.37661 11.7526C7.81343 16.5678 7.81343 21.4321 8.37661 26.2473C8.58626 28.0398 10.0367 29.4699 11.8487 29.6725C16.562 30.1992 21.4381 30.1992 26.1514 29.6725C27.9634 29.4699 29.4138 28.0398 29.6235 26.2473C30.0281 22.7875 30.142 19.3022 29.9652 15.8281C29.9606 15.7384 29.9941 15.6509 30.0576 15.5874L31.7024 13.9426C31.8927 13.7523 32.218 13.8713 32.2382 14.1398C32.5486 18.2642 32.4633 22.411 31.9824 26.5232C31.6422 29.4317 29.307 31.7096 26.4152 32.0328C21.5266 32.5791 16.4735 32.5791 11.5849 32.0328C8.69312 31.7096 6.35786 29.4317 6.01768 26.5232C5.43307 21.5247 5.43307 16.4752 6.01768 11.4767C6.35786 8.5682 8.69312 6.29035 11.5849 5.96715C16.4735 5.42078 21.5266 5.42078 26.4152 5.96715C27.4337 6.08099 28.3831 6.43728 29.2007 6.9782C29.3616 7.08464 29.3775 7.3108 29.2411 7.4472L27.9699 8.71844C27.8659 8.82242 27.7046 8.83991 27.575 8.77046C27.1421 8.53851 26.661 8.38442 26.1514 8.32746C21.4381 7.80068 16.562 7.80068 11.8487 8.32746Z" fill="#426CB4"/>
<path d="M33.298 9.54799C33.7618 9.08424 33.7618 8.33236 33.298 7.86861C32.8343 7.40486 32.0824 7.40486 31.6187 7.86861L18.2083 21.2789L14.298 17.3686C13.8343 16.9049 13.0824 16.9049 12.6187 17.3686C12.1549 17.8324 12.1549 18.5842 12.6187 19.048L17.3687 23.798C17.8324 24.2617 18.5843 24.2617 19.048 23.798L33.298 9.54799Z" fill="#426CB4"/>
</svg>
