<svg width="360" height="269" viewBox="0 0 360 269" fill="none" xmlns="http://www.w3.org/2000/svg">
<path fill-rule="evenodd" clip-rule="evenodd" d="M184.568 148.72C179.526 160.653 172.628 175.242 164.352 189.998C153.281 209.737 139.405 230.387 123.789 245.305C108.447 259.96 89.2594 271.062 68.309 266.334C47.6017 261.66 29.7478 242.488 14.415 208.518C0.168718 176.954 -2.03242 151.735 7.22508 132.838C16.569 113.766 35.8866 104.518 56.5646 100.952C77.3761 97.3633 101.5 99.1089 124.028 103.752C142.569 107.574 160.581 113.473 175.417 120.46C180.465 108.499 187.386 93.8496 195.697 79.0316C206.768 59.2928 220.644 38.6428 236.26 23.7251C251.601 9.06975 270.789 -2.03256 291.74 2.69603C312.447 7.36969 330.301 26.5411 345.634 60.512C359.902 92.1237 361.898 117.393 352.319 136.302C342.692 155.306 323.11 164.506 302.28 168.058C281.291 171.636 257.078 169.895 234.674 165.249C216.457 161.471 198.861 155.651 184.568 148.72ZM327.404 68.7398C340.635 98.0528 340.048 116.268 334.478 127.264C328.956 138.165 316.828 145.289 298.918 148.342C281.167 151.369 259.608 149.994 238.736 145.666C221.552 142.102 205.425 136.659 192.887 130.526C197.715 118.851 204.666 103.923 213.14 88.8153C223.803 69.8036 236.539 51.1177 250.075 38.1869C263.886 24.9936 276.391 19.7348 287.336 22.2053C298.525 24.7307 312.771 36.3185 327.404 68.7398ZM32.6442 200.29C19.392 170.929 19.7876 152.656 25.1855 141.638C30.497 130.796 42.2958 123.708 59.9633 120.661C77.4972 117.638 98.9477 119.003 119.991 123.341C137.371 126.923 153.917 132.417 167.101 138.65C162.276 150.303 155.347 165.169 146.908 180.214C136.245 199.226 123.51 217.912 109.974 230.843C96.1628 244.036 83.6579 249.295 72.7122 246.824C61.5233 244.299 47.2776 232.711 32.6442 200.29Z" fill="white"/>
<path d="M184.568 148.72L185.004 147.82L184.057 147.361L183.647 148.331L184.568 148.72ZM164.352 189.998L163.48 189.509L164.352 189.998ZM123.789 245.305L123.098 244.581L123.789 245.305ZM68.309 266.334L68.5291 265.358L68.5291 265.358L68.309 266.334ZM14.415 208.518L13.5035 208.929L14.415 208.518ZM7.22508 132.838L6.32706 132.399L6.32706 132.399L7.22508 132.838ZM56.5646 100.952L56.7345 101.938L56.7345 101.938L56.5646 100.952ZM124.028 103.752L124.23 102.773L124.028 103.752ZM175.417 120.46L174.991 121.364L175.934 121.808L176.339 120.848L175.417 120.46ZM195.697 79.0316L194.824 78.5424L195.697 79.0316ZM236.26 23.7251L235.569 23.002L236.26 23.7251ZM291.74 2.69603L291.52 3.67149L291.74 2.69603ZM345.634 60.512L346.545 60.1006L345.634 60.512ZM352.319 136.302L351.427 135.85L352.319 136.302ZM302.28 168.058L302.448 169.044L302.28 168.058ZM234.674 165.249L234.471 166.228L234.674 165.249ZM334.478 127.264L333.586 126.812L334.478 127.264ZM327.404 68.7398L326.493 69.1511L327.404 68.7398ZM298.918 148.342L298.75 147.356L298.918 148.342ZM238.736 145.666L238.939 144.686L238.736 145.666ZM192.887 130.526L191.963 130.144L191.604 131.012L192.447 131.424L192.887 130.526ZM213.14 88.8153L214.012 89.3045L213.14 88.8153ZM250.075 38.1869L250.766 38.91L250.075 38.1869ZM287.336 22.2053L287.557 21.2298L287.336 22.2053ZM25.1855 141.638L26.0835 142.078L25.1855 141.638ZM32.6442 200.29L33.5556 199.878L33.5556 199.878L32.6442 200.29ZM59.9633 120.661L59.7933 119.676L59.7933 119.676L59.9633 120.661ZM119.991 123.341L119.789 124.32L119.991 123.341ZM167.101 138.65L168.025 139.033L168.39 138.153L167.529 137.746L167.101 138.65ZM146.908 180.214L147.781 180.703L146.908 180.214ZM109.974 230.843L109.283 230.12L109.283 230.12L109.974 230.843ZM72.7122 246.824L72.4921 247.8L72.4921 247.8L72.7122 246.824ZM183.647 148.331C178.617 160.234 171.736 174.789 163.48 189.509L165.224 190.487C173.521 175.695 180.434 161.072 185.489 149.109L183.647 148.331ZM163.48 189.509C152.429 209.211 138.61 229.763 123.098 244.581L124.479 246.028C140.199 231.011 154.133 210.262 165.224 190.487L163.48 189.509ZM123.098 244.581C107.831 259.165 88.9781 269.973 68.5291 265.358L68.0888 267.309C89.5408 272.151 109.063 260.754 124.479 246.028L123.098 244.581ZM68.5291 265.358C48.2984 260.792 30.6247 242.001 15.3264 208.106L13.5035 208.929C28.8708 242.976 46.9051 262.528 68.0888 267.309L68.5291 265.358ZM15.3264 208.106C1.12948 176.652 -0.94115 151.78 8.1231 133.278L6.32706 132.399C-3.12369 151.689 -0.792046 177.256 13.5035 208.929L15.3264 208.106ZM8.1231 133.278C17.2649 114.618 36.2052 105.478 56.7345 101.938L56.3946 99.9666C35.5679 103.558 15.8732 112.913 6.32706 132.399L8.1231 133.278ZM56.7345 101.938C77.3822 98.377 101.372 100.104 123.827 104.732L124.23 102.773C101.628 98.1142 77.37 96.3495 56.3946 99.9666L56.7345 101.938ZM123.827 104.732C142.299 108.539 160.235 114.415 174.991 121.364L175.843 119.555C160.928 112.531 142.84 106.609 124.23 102.773L123.827 104.732ZM176.339 120.848C181.374 108.918 188.278 94.3022 196.569 79.5208L194.824 78.5424C186.493 93.397 179.556 108.08 174.496 120.071L176.339 120.848ZM196.569 79.5208C207.619 59.8184 221.439 39.2666 236.951 24.4481L235.569 23.002C219.849 38.019 205.916 58.7672 194.824 78.5424L196.569 79.5208ZM236.951 24.4481C252.217 9.8644 271.071 -0.943895 291.52 3.67149L291.96 1.72057C270.508 -3.12122 250.985 8.2751 235.569 23.002L236.951 24.4481ZM291.52 3.67149C311.75 8.2376 329.424 27.0289 344.722 60.9234L346.545 60.1006C331.178 26.0532 313.144 6.50178 291.96 1.72057L291.52 3.67149ZM344.722 60.9234C358.939 92.4212 360.806 117.337 351.427 135.85L353.211 136.754C362.991 117.449 360.865 91.8263 346.545 60.1006L344.722 60.9234ZM351.427 135.85C342.006 154.448 322.798 163.545 302.112 167.072L302.448 169.044C323.423 165.468 343.379 156.164 353.211 136.754L351.427 135.85ZM302.112 167.072C281.284 170.623 257.204 168.9 234.877 164.27L234.471 166.228C256.951 170.89 281.297 172.649 302.448 169.044L302.112 167.072ZM234.877 164.27C216.728 160.506 199.212 154.71 185.004 147.82L184.132 149.62C198.509 156.592 216.186 162.436 234.471 166.228L234.877 164.27ZM335.37 127.716C341.141 116.325 341.599 97.7576 328.316 68.3284L326.493 69.1511C339.671 98.3479 338.956 116.211 333.586 126.812L335.37 127.716ZM299.087 149.328C317.145 146.249 329.643 139.02 335.37 127.716L333.586 126.812C328.268 137.309 316.512 144.328 298.75 147.356L299.087 149.328ZM238.533 146.645C259.481 150.989 281.173 152.382 299.087 149.328L298.75 147.356C281.161 150.355 259.734 148.999 238.939 144.686L238.533 146.645ZM192.447 131.424C205.071 137.599 221.28 143.067 238.533 146.645L238.939 144.686C221.825 141.137 205.779 135.718 193.326 129.628L192.447 131.424ZM212.268 88.3261C203.772 103.473 196.804 118.437 191.963 130.144L193.811 130.908C198.626 119.265 205.56 104.374 214.012 89.3045L212.268 88.3261ZM249.384 37.4638C235.744 50.4939 222.952 69.2781 212.268 88.3261L214.012 89.3045C224.655 70.3291 237.334 51.7414 250.766 38.91L249.384 37.4638ZM287.557 21.2298C276.113 18.6469 263.274 24.1951 249.384 37.4638L250.766 38.91C264.498 25.7921 276.669 20.8227 287.116 23.1807L287.557 21.2298ZM328.316 68.3284C313.647 35.8283 299.221 23.8624 287.557 21.2298L287.116 23.1807C297.83 25.5989 311.895 36.8087 326.493 69.1511L328.316 68.3284ZM24.2875 141.198C18.6969 152.609 18.4303 171.229 31.7327 200.701L33.5556 199.878C20.3537 170.629 20.8782 152.702 26.0835 142.078L24.2875 141.198ZM59.7933 119.676C41.9727 122.749 29.7998 129.946 24.2875 141.198L26.0835 142.078C31.1942 131.646 42.6189 124.667 60.1332 121.647L59.7933 119.676ZM120.193 122.361C99.0753 118.009 77.4911 116.624 59.7933 119.676L60.1332 121.647C77.5032 118.651 98.82 119.998 119.789 124.32L120.193 122.361ZM167.529 137.746C154.265 131.475 137.642 125.958 120.193 122.361L119.789 124.32C137.1 127.888 153.569 133.359 166.674 139.554L167.529 137.746ZM147.781 180.703C156.241 165.62 163.187 150.718 168.025 139.033L166.177 138.268C161.365 149.889 154.453 164.719 146.036 179.725L147.781 180.703ZM110.664 231.566C124.304 218.536 137.097 199.751 147.781 180.703L146.036 179.725C135.393 198.701 122.715 217.288 109.283 230.12L110.664 231.566ZM72.4921 247.8C83.936 250.383 96.7746 244.834 110.664 231.566L109.283 230.12C95.551 243.237 83.3798 248.207 72.9324 245.849L72.4921 247.8ZM31.7327 200.701C46.4017 233.201 60.828 245.167 72.4921 247.8L72.9324 245.849C62.2185 243.431 48.1534 232.221 33.5556 199.878L31.7327 200.701Z" fill="white"/>
</svg>
